<svg viewBox="0 0 813 400" xmlns="http://www.w3.org/2000/svg"><g><g><g><g><g><line x1="72.34375" y1="377" x2="67.34375" y2="377" style="visibility: inherit;" fill="rgb(0, 0, 0)" stroke="rgb(204, 204, 204)" stroke-width="1px"></line><line x1="72.34375" y1="339.3" x2="67.34375" y2="339.3" style="visibility: inherit;" fill="rgb(0, 0, 0)" stroke="rgb(204, 204, 204)" stroke-width="1px"></line><line x1="72.34375" y1="301.6" x2="67.34375" y2="301.6" style="visibility: inherit;" fill="rgb(0, 0, 0)" stroke="rgb(204, 204, 204)" stroke-width="1px"></line><line x1="72.34375" y1="263.9" x2="67.34375" y2="263.9" style="visibility: inherit;" fill="rgb(0, 0, 0)" stroke="rgb(204, 204, 204)" stroke-width="1px"></line><line x1="72.34375" y1="226.2" x2="67.34375" y2="226.2" style="visibility: inherit;" fill="rgb(0, 0, 0)" stroke="rgb(204, 204, 204)" stroke-width="1px"></line><line x1="72.34375" y1="188.5" x2="67.34375" y2="188.5" style="visibility: inherit;" fill="rgb(0, 0, 0)" stroke="rgb(204, 204, 204)" stroke-width="1px"></line><line x1="72.34375" y1="150.8" x2="67.34375" y2="150.8" style="visibility: inherit;" fill="rgb(0, 0, 0)" stroke="rgb(204, 204, 204)" stroke-width="1px"></line><line x1="72.34375" y1="113.10000000000002" x2="67.34375" y2="113.10000000000002" style="visibility: inherit;" fill="rgb(0, 0, 0)" stroke="rgb(204, 204, 204)" stroke-width="1px"></line><line x1="72.34375" y1="75.39999999999998" x2="67.34375" y2="75.39999999999998" style="visibility: inherit;" fill="rgb(0, 0, 0)" stroke="rgb(204, 204, 204)" stroke-width="1px"></line><line x1="72.34375" y1="37.69999999999999" x2="67.34375" y2="37.69999999999999" style="visibility: inherit;" fill="rgb(0, 0, 0)" stroke="rgb(204, 204, 204)" stroke-width="1px"></line><line x1="72.34375" y1="0" x2="67.34375" y2="0" style="visibility: inherit;" fill="rgb(0, 0, 0)" stroke="rgb(204, 204, 204)" stroke-width="1px"></line></g><g transform="translate(62.34375, 0)"><text x="0" y="377" dx="0em" dy="0.3em" style="text-anchor: end; visibility: hidden; font-family: Roboto, sans-serif; font-size: 12px; font-weight: 200;" fill="rgb(255, 255, 255)" stroke="none" stroke-width="1px">2.8e+3</text><text x="0" y="339.3" dx="0em" dy="0.3em" style="text-anchor: end; visibility: inherit; font-family: Roboto, sans-serif; font-size: 12px; font-weight: 200;" fill="rgb(255, 255, 255)" stroke="none" stroke-width="1px">2.9e+3</text><text x="0" y="301.6" dx="0em" dy="0.3em" style="text-anchor: end; visibility: inherit; font-family: Roboto, sans-serif; font-size: 12px; font-weight: 200;" fill="rgb(255, 255, 255)" stroke="none" stroke-width="1px">3e+3</text><text x="0" y="263.9" dx="0em" dy="0.3em" style="text-anchor: end; visibility: inherit; font-family: Roboto, sans-serif; font-size: 12px; font-weight: 200;" fill="rgb(255, 255, 255)" stroke="none" stroke-width="1px">3.1e+3</text><text x="0" y="226.2" dx="0em" dy="0.3em" style="text-anchor: end; visibility: inherit; font-family: Roboto, sans-serif; font-size: 12px; font-weight: 200;" fill="rgb(255, 255, 255)" stroke="none" stroke-width="1px">3.2e+3</text><text x="0" y="188.5" dx="0em" dy="0.3em" style="text-anchor: end; visibility: inherit; font-family: Roboto, sans-serif; font-size: 12px; font-weight: 200;" fill="rgb(255, 255, 255)" stroke="none" stroke-width="1px">3.3e+3</text><text x="0" y="150.8" dx="0em" dy="0.3em" style="text-anchor: end; visibility: inherit; font-family: Roboto, sans-serif; font-size: 12px; font-weight: 200;" fill="rgb(255, 255, 255)" stroke="none" stroke-width="1px">3.4e+3</text><text x="0" y="113.10000000000002" dx="0em" dy="0.3em" style="text-anchor: end; visibility: inherit; font-family: Roboto, sans-serif; font-size: 12px; font-weight: 200;" fill="rgb(255, 255, 255)" stroke="none" stroke-width="1px">3.5e+3</text><text x="0" y="75.39999999999998" dx="0em" dy="0.3em" style="text-anchor: end; visibility: inherit; font-family: Roboto, sans-serif; font-size: 12px; font-weight: 200;" fill="rgb(255, 255, 255)" stroke="none" stroke-width="1px">3.6e+3</text><text x="0" y="37.69999999999999" dx="0em" dy="0.3em" style="text-anchor: end; visibility: inherit; font-family: Roboto, sans-serif; font-size: 12px; font-weight: 200;" fill="rgb(255, 255, 255)" stroke="none" stroke-width="1px">3.7e+3</text><text x="0" y="0" dx="0em" dy="0.3em" style="text-anchor: end; visibility: hidden; font-family: Roboto, sans-serif; font-size: 12px; font-weight: 200;" fill="rgb(255, 255, 255)" stroke="none" stroke-width="1px">3.8e+3</text></g><line x1="72.34375" y1="0" x2="72.34375" y2="377" fill="rgb(0, 0, 0)" stroke="rgb(204, 204, 204)" stroke-width="1px"></line></g></g><g transform="translate(72, 0)" clip-path="url(#clip_0)"><clipPath id="clip_0"><rect width="740" height="377"></rect></clipPath><g><g><g><line x1="0" y1="0" x2="0" y2="377" fill="rgb(0, 0, 0)" stroke="rgb(189, 189, 189)" stroke-width="1px" opacity="0.25"></line><line x1="56.97355769230769" y1="0" x2="56.97355769230769" y2="377" fill="rgb(0, 0, 0)" stroke="rgb(189, 189, 189)" stroke-width="1px" opacity="0.25"></line><line x1="113.94711538461539" y1="0" x2="113.94711538461539" y2="377" fill="rgb(0, 0, 0)" stroke="rgb(189, 189, 189)" stroke-width="1px" opacity="0.25"></line><line x1="170.9206730769231" y1="0" x2="170.9206730769231" y2="377" fill="rgb(0, 0, 0)" stroke="rgb(189, 189, 189)" stroke-width="1px" opacity="0.25"></line><line x1="227.89423076923077" y1="0" x2="227.89423076923077" y2="377" fill="rgb(0, 0, 0)" stroke="rgb(189, 189, 189)" stroke-width="1px" opacity="0.25"></line><line x1="284.86778846153845" y1="0" x2="284.86778846153845" y2="377" fill="rgb(0, 0, 0)" stroke="rgb(189, 189, 189)" stroke-width="1px" opacity="0.25"></line><line x1="341.8413461538462" y1="0" x2="341.8413461538462" y2="377" fill="rgb(0, 0, 0)" stroke="rgb(189, 189, 189)" stroke-width="1px" opacity="0.25"></line><line x1="398.8149038461538" y1="0" x2="398.8149038461538" y2="377" fill="rgb(0, 0, 0)" stroke="rgb(189, 189, 189)" stroke-width="1px" opacity="0.25"></line><line x1="455.78846153846155" y1="0" x2="455.78846153846155" y2="377" fill="rgb(0, 0, 0)" stroke="rgb(189, 189, 189)" stroke-width="1px" opacity="0.25"></line><line x1="512.7620192307692" y1="0" x2="512.7620192307692" y2="377" fill="rgb(0, 0, 0)" stroke="rgb(189, 189, 189)" stroke-width="1px" opacity="0.25"></line><line x1="569.7355769230769" y1="0" x2="569.7355769230769" y2="377" fill="rgb(0, 0, 0)" stroke="rgb(189, 189, 189)" stroke-width="1px" opacity="0.25"></line><line x1="626.7091346153846" y1="0" x2="626.7091346153846" y2="377" fill="rgb(0, 0, 0)" stroke="rgb(189, 189, 189)" stroke-width="1px" opacity="0.25"></line><line x1="683.6826923076924" y1="0" x2="683.6826923076924" y2="377" fill="rgb(0, 0, 0)" stroke="rgb(189, 189, 189)" stroke-width="1px" opacity="0.25"></line><line x1="740.65625" y1="0" x2="740.65625" y2="377" fill="rgb(0, 0, 0)" stroke="rgb(189, 189, 189)" stroke-width="1px" opacity="0.25"></line></g><g><line x1="0" y1="377" x2="740.65625" y2="377" fill="rgb(0, 0, 0)" stroke="rgb(189, 189, 189)" stroke-width="1px" opacity="0.25"></line><line x1="0" y1="339.3" x2="740.65625" y2="339.3" fill="rgb(0, 0, 0)" stroke="rgb(189, 189, 189)" stroke-width="1px" opacity="0.25"></line><line x1="0" y1="301.6" x2="740.65625" y2="301.6" fill="rgb(0, 0, 0)" stroke="rgb(189, 189, 189)" stroke-width="1px" opacity="0.25"></line><line x1="0" y1="263.9" x2="740.65625" y2="263.9" fill="rgb(0, 0, 0)" stroke="rgb(189, 189, 189)" stroke-width="1px" opacity="0.25"></line><line x1="0" y1="226.2" x2="740.65625" y2="226.2" fill="rgb(0, 0, 0)" stroke="rgb(189, 189, 189)" stroke-width="1px" opacity="0.25"></line><line x1="0" y1="188.5" x2="740.65625" y2="188.5" fill="rgb(0, 0, 0)" stroke="rgb(189, 189, 189)" stroke-width="1px" opacity="0.25"></line><line x1="0" y1="150.8" x2="740.65625" y2="150.8" fill="rgb(0, 0, 0)" stroke="rgb(189, 189, 189)" stroke-width="1px" opacity="0.25"></line><line x1="0" y1="113.10000000000002" x2="740.65625" y2="113.10000000000002" fill="rgb(0, 0, 0)" stroke="rgb(189, 189, 189)" stroke-width="1px" opacity="0.25"></line><line x1="0" y1="75.39999999999998" x2="740.65625" y2="75.39999999999998" fill="rgb(0, 0, 0)" stroke="rgb(189, 189, 189)" stroke-width="1px" opacity="0.25"></line><line x1="0" y1="37.69999999999999" x2="740.65625" y2="37.69999999999999" fill="rgb(0, 0, 0)" stroke="rgb(189, 189, 189)" stroke-width="1px" opacity="0.25"></line><line x1="0" y1="0" x2="740.65625" y2="0" fill="rgb(0, 0, 0)" stroke="rgb(189, 189, 189)" stroke-width="1px" opacity="0.25"></line></g></g></g><g><g><line x1="0" y1="1432.6" x2="740.65625" y2="1432.6" fill="rgb(0, 0, 0)" stroke="rgb(153, 153, 153)" stroke-width="1.5px"></line></g></g><g><g><line x1="56.97355769230769" y1="0" x2="56.97355769230769" y2="377" fill="rgb(0, 0, 0)" stroke="rgb(153, 153, 153)" stroke-width="1.5px"></line></g></g><g><g><g><g><g><path stroke="rgb(0, 153, 136)" stroke-width="2px" d="M58.84172064903846,380.6240229492187L60.709883605769235,124.96123364257811L62.5780465625,47.65331542968748L64.44620951923078,142.14446289062502L66.31437247596153,28.761989013671872L68.1825354326923,59.03648803710937L70.05069838942308,14.299584228515613L71.91886134615385,82.67427758789064L73.78702430288462,74.37908105468752L75.65518725961539,78.5165087890625L77.52335021634616,102.91897509765626L79.39151317307692,84.28416699218751L81.2596761298077,96.90915698242188L83.12783908653846,115.12821582031248L84.99600204326923,90.03930761718749L86.864165,97.08596777343749L88.73232795673077,102.88998217773438L90.60049091346153,113.47681591796874L92.46865387019231,116.05626538085936L94.33681682692307,115.86656884765627L96.20497978365385,338.1366015625L98.07314274038463,268.4943193359375L99.94130569711538,170.69834716796876L101.80946865384615,144.1453425292969L103.67763161057694,174.42140625L105.5457945673077,169.40931274414064L107.41395752403845,136.73410791015624L109.28212048076922,152.1773937988281L111.15028343750001,101.76873852539062L113.01844639423076,143.5102595214844L114.88660935096154,115.27879492187502L116.75477230769229,131.7728210449219L118.62293526442308,121.15174804687501L120.49109822115385,129.276392578125L122.3592611778846,140.41390771484376L124.22742413461539,169.79570092773437L126.09558709134616,164.599525390625L127.96375004807692,166.201775390625L129.8319130048077,172.9843698730469L131.70007596153846,172.14734887695315L133.56823891826923,192.90462280273437L135.436401875,287.8175021972656L137.30456483173077,295.0019477539063L139.17272778846154,270.12924389648435L141.0408907451923,279.7874758300781L142.90905370192309,213.56396508789064L144.77721665865386,278.4504880371094L146.64537961538463,277.31571435546874L148.51354257211537,235.14040405273434L150.38170552884614,192.1406823730469L152.24986848557694,202.85416455078123L154.11803144230768,226.9499501953125L155.98619439903845,219.89933227539063L157.85435735576922,214.1276242675781L159.7225203125,228.33295849609374L161.59068326923077,220.60574707031247L163.45884622596154,207.77311254882812L165.3270091826923,190.4767648925781L167.19517213942308,181.94980908203124L169.06333509615385,188.144353515625L170.93149805288462,42.9459697265625L172.7996610096154,254.01718798828125L174.66782396634616,281.01079296875L176.53598692307693,202.2784479980469L178.40414987980768,250.5828615722656L180.27231283653848,125.69434033203125L182.14047579326925,121.46560791015625L184.00863875,89.13730566406252L185.8768017067308,109.14251245117187L187.74496466346153,152.57188159179685L189.6131276201923,116.42093188476561L191.4812905769231,149.74971997070313L193.34945353365384,193.51660351562498L195.21761649038461,206.88905859374998L197.0857794471154,207.6956140136719L198.95394240384616,181.0480832519531L200.82210536057693,188.6395341796875L202.69026831730767,208.12461718749998L204.55843127403847,203.80384375L206.42659423076924,190.34864379882814L208.29475718749998,142.25224291992188L210.16292014423078,116.02920532226562L212.03108310096155,175.04121044921874L213.8992460576923,143.76024291992186L215.7674090144231,126.91931420898439L217.63557197115387,173.88655590820312L219.5037349278846,208.55813037109374L221.37189788461538,227.47983032226563L223.24006084134615,204.77414013671878L225.10822379807692,175.53427416992187L226.9763867548077,128.3895773925781L228.84454971153843,149.4639326171875L230.71271266826923,172.2532880859375L232.580875625,174.6883251953125L234.44903858173075,189.62842285156253L236.31720153846155,168.0671706542969L238.18536449519232,194.20424194335936L240.05352745192306,176.46462475585938L241.92169040865386,194.50954199218748L243.7898533653846,199.60548486328125L245.65801632211537,58.51231445312498L247.52617927884617,129.05926782226564L249.39434223557691,338.2413442382813L251.26250519230769,238.96102661132812L253.13066814903848,210.8857556152344L254.99883110576923,205.8908737792969L256.8669940625,228.92634692382813L258.73515701923077,193.42134106445312L260.60331997596154,170.98367431640625L262.4714829326923,151.02089843750002L264.3396458894231,167.29872021484374L266.20780884615385,202.02413867187497L268.0759718028846,229.29119750976562L269.9441347596154,194.80738671875002L271.81229771634617,196.95617626953123L273.68046067307694,196.58911669921875L275.5486236298077,183.54239477539065L277.4167865865385,176.23986059570314L279.2849495432692,186.61251489257813L281.1531125,189.58810888671877L283.0212754567308,526.0950322265625L284.8894384134615,55.05737084960938L286.75760137019233,172.02659106445313L288.6257643269231,79.97407031250002L290.4939272836538,87.27669653320314L292.36209024038465,88.73471826171875L294.2302531971154,93.02493408203125L296.09841615384613,98.53800683593752L297.9665791105769,148.7589904785156L299.8347420673077,176.42440283203126L301.70290502403844,177.77151513671876L303.5710679807692,169.2561564941406L305.4392309375,174.36793041992186L307.30739389423076,190.57534082031248L309.1755568509615,233.17477612304685L311.0437198076923,200.29109838867188L312.91188276442307,202.9845866699219L314.78004572115384,207.37319433593748L316.6482086778846,193.87979736328123L318.5163716346154,204.2327548828125L320.38453459134615,353.35751635742184L322.2526975480769,319.3392490234375L324.1208605048077,273.37976440429685L325.98902346153847,266.1724006347656L327.85718641826924,237.3421171875L329.725349375,229.42760229492185L331.5935123317308,265.99945556640625L333.46167528846155,243.96520458984375L335.3298382451923,236.1121730957031L337.1980012019231,222.45337841796876L339.06616415865386,232.05721411132814L340.9343271153846,216.82295336914063L342.8024900721154,228.01891455078126L344.6706530288462,245.00029785156246L346.5388159855769,227.91058227539062L348.4069789423077,243.7934560546875L350.2751418990385,239.30581225585937L352.1433048557692,218.06771606445312L354.01146781250003,220.377853515625L355.8796307692308,195.24136010742188L357.7477937259615,453.05864550781246L359.61595668269234,329.17677685546874L361.48411963942306,244.85404467773435L363.3522825961538,200.8353369140625L365.22044555288466,167.54134033203124L367.08860850961537,194.4915939941406L368.95677146634614,194.89620629882813L370.8249344230769,177.1256633300781L372.6930973798077,146.33656298828126L374.56126033653845,152.64615869140627L376.4294232932692,151.17359448242186L378.29758625,116.32925903320314L380.1657492067307,131.80595581054686L382.03391216346154,142.346216796875L383.9020751201923,161.70271850585937L385.770238076923,162.30356225585936L387.63840103365385,164.64352099609374L389.5065639903846,195.32760253906253L391.37472694711533,203.3632434082031L393.24288990384616,235.23658691406249L395.11105286057693,565.8546340332032L398.8473787740385,495.84694897460935L400.71554173076925,356.4864506835938L402.58370468749996,339.8748881835938L404.4518676442308,268.4537292480469L406.32003060096156,217.45343432617187L408.1881935576923,153.96344970703126L410.05635651442304,200.30481250000003L411.92451947115387,204.61435693359374L413.7926824278846,214.9246994628906L415.66084538461536,197.63571508789062L417.5290083413462,241.11276147460939L419.3971712980769,267.4386088867187L421.26533425480767,257.4724997558594L423.1334972115385,254.37651611328124L425.0016601682692,259.34452197265625L426.869823125,249.45535913085936L428.7379860817308,238.44209936523438L430.6061490384615,254.9664069824219L432.4743119951923,158.83831005859375L434.3424749519231,309.7731501464844L436.21063790865384,380.8412397460938L438.0788008653846,274.55043408203124L439.94696382211544,304.11842626953126L441.81512677884615,301.96521875L443.6832897355769,242.64229907226562L445.55145269230775,277.0445615234375L447.41961564903846,231.71969970703122L449.28777860576923,203.19204711914062L451.15594156249995,189.83763208007812L453.0241045192308,195.22157128906252L454.89226747596155,217.02415502929688L456.76043043269226,219.89868798828124L458.6285933894231,212.5576806640625L460.49675634615386,222.75923071289063L462.3649193028846,224.9659140625L464.2330822596154,238.60436767578125L466.1012452163462,265.19584545898437L467.9694081730769,260.7508166503906L469.8375711298077,-223.57259716796875L471.7057340865385,127.98772631835936L473.5738970432692,157.40928125000002L475.44206,123.8691669921875L477.3102229567308,154.36622119140625L479.1783859134615,134.97686083984374L481.04654887019234,212.9258447265625L482.9147118269231,240.22907568359375L484.7828747836538,240.31494995117185L486.6510377403846,247.81445190429687L488.5192006971154,286.2221552734375L490.38736365384614,290.6094743652344L492.2555266105769,289.2283989257812L494.12368956730774,255.64502539062497L495.99185252403845,206.0050966796875L497.8600154807692,204.43542919921876L499.72817843750005,209.32041406250002L501.59634139423076,220.78090112304687L503.46450435096153,246.57953759765624L505.33266730769236,249.43685888671874L507.2008302644231,260.8566638183594L509.06899322115385,192.58284741210937L510.9371561778847,241.78374047851563L512.8053191346154,293.23853393554685L514.6734820913462,319.82218823242187L516.5416450480769,327.98107202148435L518.4098080048077,302.2539514160156L520.2779709615385,221.43199926757814L522.1461339182692,245.7052399902344L524.014296875,263.6328969726562L525.8824598317308,254.55728466796876L527.7506227884616,252.36707666015627L529.6187857451923,229.08732666015626L531.4869487019231,208.63553686523437L533.3551116586538,202.03610400390625L535.2232746153846,212.0540322265625L537.0914375721154,224.50497265625L538.9596005288461,242.9152927246094L540.827763485577,261.13637646484375L542.6959264423077,264.5556081542969L544.5640893990384,243.8703103027344L546.4322523557693,265.1857209472656L548.3004153125,337.24997045898436L550.1685782692307,320.5960690917969L552.0367412259616,314.43622412109374L553.9049041826923,285.0675007324219L555.773067139423,291.51267285156246L557.6412300961539,295.0541350097656L559.5093930528847,300.400521484375L561.3775560096153,263.35751025390624L563.2457189663462,227.3180222167969L565.113881923077,228.3236623535156L566.9820448798076,225.348068359375L568.8502078365384,250.61802124023438L570.7183707932693,263.930189453125L572.58653375,278.68418017578125L574.4546967067307,256.9383857421875L576.3228596634616,267.77870043945313L578.1910226201923,259.97086108398435L580.059185576923,262.30962329101567L581.9273485336539,472.6567548828125L583.7955114903846,301.5650244140625L585.6636744471153,406.85239892578124L589.4000003605769,394.16951513671876L591.2681633173077,366.24196997070317L593.1363262740385,368.0658547363281L595.0044892307692,357.33718579101566L596.8726521875,371.39884399414063L598.7408151442309,297.7082297363281L600.6089781009615,275.1051652832031L602.4771410576923,251.97056396484376L604.345304014423,284.63555224609377L606.2134669711538,250.36509252929687L608.0816299278846,268.9002202148437L609.9497928846154,289.3475920410156L611.8179558413461,293.4850197753906L613.6861187980769,293.06089477539064L615.5542817548077,298.51598168945316L617.4224447115384,289.12439257812497L619.2906076682692,-91.6782819824219L621.158770625,79.77783886718751L623.0269335817308,202.54665551757816L624.8950965384615,133.58593701171873L626.7632594951923,207.61590649414066L628.6314224519231,213.5734453125L630.4995854086538,229.61619433593748L632.3677483653846,227.4382277832031L634.2359113221154,244.80894458007813L636.1040742788462,292.2113562011719L637.9722372355769,286.5675852050781L639.8404001923077,290.3436599121094L641.7085631490385,305.7325495605469L643.5767261057692,311.32671044921875L645.4448890625,332.84921337890626L647.3130520192308,281.0357360839844L649.1812149759616,278.76701708984376L651.0493779326923,283.51596533203127L652.9175408894231,297.12745092773434L654.7857038461539,290.55526220703126L656.6538668028846,112.058095703125L658.5220297596154,203.58276123046875L660.3901927163462,180.63445092773438L662.258355673077,210.46126245117188L664.1265186298077,296.3916750488281L665.9946815865385,333.4384599609375L667.8628445432693,317.7627705078125L669.7310075,358.85080029296876L671.5991704567308,351.08953369140625L673.4673334134616,341.8731906738281L675.3354963701923,360.7821889648437L677.2036593269231,379.881251953125L679.0718222836538,378.5025695800781L680.9399852403847,352.64088500976567L682.8081481971154,354.4474660644531L684.6763111538461,345.8218422851562L686.5444741105769,309.1509528808594L688.4126370673077,291.9778481445312L690.2808000240384,294.7428522949219L692.1489629807692,296.0437600097656" style="fill: none;" fill="none"></path></g><g><path stroke="rgb(238, 51, 119)" stroke-width="2px" d="M58.84172064903846,-142.9717275390625L60.709883605769235,7.63719531250001L62.5780465625,71.21968115234377L64.44620951923078,149.59306616210935L66.31437247596153,108.88847924804689L68.1825354326923,117.98572119140626L70.05069838942308,127.86209033203126L71.91886134615385,79.77572192382813L73.78702430288462,40.02946606445313L75.65518725961539,83.64954418945314L77.52335021634616,63.102031738281234L79.39151317307692,52.716031494140616L81.2596761298077,64.61675073242189L83.12783908653846,50.978205078125L84.99600204326923,28.950857177734385L86.864165,65.86473486328124L88.73232795673077,71.11493847656249L90.60049091346153,88.27340869140623L92.46865387019231,103.14309497070313L94.33681682692307,107.83350512695314L96.20497978365385,372.03512353515623L98.07314274038463,74.23678564453124L99.94130569711538,45.15440185546876L101.80946865384615,65.25625170898438L103.67763161057694,47.084225830078104L105.5457945673077,58.10595336914061L107.41395752403845,36.67217797851563L109.28212048076922,67.00199365234376L111.15028343750001,82.15571850585938L113.01844639423076,77.98653662109376L114.88660935096154,91.88841162109375L116.75477230769229,112.01271948242189L118.62293526442308,131.36986547851564L120.49109822115385,134.48269262695314L122.3592611778846,143.6172111816406L124.22742413461539,158.9950559082031L126.09558709134616,157.36224829101565L127.96375004807692,149.0796613769531L129.8319130048077,152.4777236328125L131.70007596153846,149.08638037109375L133.56823891826923,44.227548828124995L135.436401875,-209.80988818359373L137.30456483173077,-104.52104101562497L139.17272778846154,76.83105371093751L141.0408907451923,44.70919946289064L142.90905370192309,108.74047729492187L144.77721665865386,118.50556884765626L146.64537961538463,134.12189184570315L148.51354257211537,176.25596777343753L150.38170552884614,155.43306860351564L152.24986848557694,164.94771655273436L154.11803144230768,177.1491337890625L155.98619439903845,204.13252221679687L157.85435735576922,195.10237817382813L159.7225203125,172.39236206054687L161.59068326923077,178.6760021972656L163.45884622596154,168.48098706054685L165.3270091826923,141.38328369140626L167.19517213942308,163.53534716796875L169.06333509615385,172.92251831054688L170.93149805288462,359.0729873046875L172.7996610096154,179.7520537109375L174.66782396634616,158.25605859375L176.53598692307693,253.043578125L178.40414987980768,232.42924389648437L180.27231283653848,199.04569140625L182.14047579326925,228.19075512695315L184.00863875,252.452306640625L185.8768017067308,272.81490869140623L187.74496466346153,253.57309008789065L189.6131276201923,260.9740161132812L191.4812905769231,268.51880224609374L193.34945353365384,231.84496752929687L195.21761649038461,221.03603881835937L197.0857794471154,207.30701684570315L198.95394240384616,185.06236010742185L200.82210536057693,198.23950415039062L202.69026831730767,189.4517041015625L204.55843127403847,184.49759643554685L206.42659423076924,189.68134643554689L208.29475718749998,329.735833984375L210.16292014423078,92.66735473632811L212.03108310096155,146.73896630859372L213.8992460576923,153.49035888671875L215.7674090144231,76.74932128906251L217.63557197115387,29.178934814453143L219.5037349278846,94.72014550781252L221.37189788461538,122.0202470703125L223.24006084134615,164.56786328125L225.10822379807692,174.08775756835936L226.9763867548077,154.3030810546875L228.84454971153843,181.51694018554687L230.71271266826923,176.81861450195314L232.580875625,202.04089013671876L234.44903858173075,205.499607421875L236.31720153846155,183.57691015625002L238.18536449519232,197.463322265625L240.05352745192306,218.545869140625L241.92169040865386,205.2938037109375L243.7898533653846,200.9558186035156L245.65801632211537,500.40169067382817L247.52617927884617,282.732328125L249.39434223557691,105.74997265625L251.26250519230769,103.9978798828125L253.13066814903848,81.51741406250002L254.99883110576923,101.06775415039061L256.8669940625,50.749759277343756L258.73515701923077,112.8084140625L260.60331997596154,125.41352319335938L262.4714829326923,125.43183935546877L264.3396458894231,95.63107543945314L266.20780884615385,82.83065527343749L268.0759718028846,124.00483544921873L269.9441347596154,135.54061206054686L271.81229771634617,163.34196899414061L273.68046067307694,188.879208984375L275.5486236298077,187.73118139648437L277.4167865865385,188.60768798828127L279.2849495432692,205.9825466308594L281.1531125,202.1934020996094L283.0212754567308,-55.81965454101564L284.8894384134615,15.571038818359392L286.75760137019233,13.002634277343748L288.6257643269231,43.57157250976563L290.4939272836538,77.21965087890624L292.36209024038465,169.95576025390625L294.2302531971154,213.78495556640624L296.09841615384613,148.66676538085937L297.9665791105769,173.64402783203124L299.8347420673077,188.41366552734374L301.70290502403844,189.92341430664064L303.5710679807692,210.01035351562498L305.4392309375,207.7051862792969L307.30739389423076,202.77712622070314L309.1755568509615,228.18090673828127L311.0437198076923,220.81237915039063L312.91188276442307,226.41666455078123L314.78004572115384,227.73883374023438L316.6482086778846,244.58905859375L318.5163716346154,212.7123095703125L320.38453459134615,313.8116337890625L322.2526975480769,171.197025390625L324.1208605048077,250.11713403320311L325.98902346153847,174.41717236328125L327.85718641826924,181.16488330078124L329.725349375,164.67159350585936L331.5935123317308,188.63750927734372L333.46167528846155,192.28463452148435L335.3298382451923,155.4002099609375L337.1980012019231,159.07172607421876L339.06616415865386,175.7511228027344L340.9343271153846,200.99723706054687L342.8024900721154,182.35359301757813L344.6706530288462,193.33822802734375L346.5388159855769,178.32504980468752L348.4069789423077,205.75778247070315L350.2751418990385,210.53553955078124L352.1433048557692,229.7281162109375L354.01146781250003,235.5399541015625L355.8796307692308,228.32642358398436L357.7477937259615,382.62840014648435L359.61595668269234,149.89615722656248L361.48411963942306,164.3900400390625L363.3522825961538,249.86899145507812L365.22044555288466,252.54002172851563L367.08860850961537,203.17640014648435L368.95677146634614,218.34153808593751L370.8249344230769,295.2821206054687L372.6930973798077,275.90785498046876L374.56126033653845,274.5519067382813L376.4294232932692,273.02982446289064L378.29758625,260.59388671874996L380.1657492067307,246.14823339843753L382.03391216346154,257.7564462890625L383.9020751201923,237.24547412109374L385.770238076923,246.78055517578127L387.63840103365385,229.2955234375L389.5065639903846,224.35706274414065L391.37472694711533,215.46378369140623L393.24288990384616,222.033119140625L395.11105286057693,352.25394458007816L396.97921581730765,207.5643635253906L398.8473787740385,233.10519311523439L400.71554173076925,217.4215881347656L402.58370468749996,211.22363818359375L404.4518676442308,269.0883520507812L406.32003060096156,282.864130859375L408.1881935576923,272.43082153320313L410.05635651442304,282.5533083496094L411.92451947115387,277.3025524902344L413.7926824278846,268.9454123535156L415.66084538461536,248.2926970214844L417.5290083413462,223.19504492187502L419.3971712980769,210.15890771484376L421.26533425480767,193.09818505859377L423.1334972115385,225.70546362304685L425.0016601682692,229.74606420898436L426.869823125,209.40601220703124L428.7379860817308,210.89146215820313L430.6061490384615,224.8831691894531L432.4743119951923,349.8865576171875L434.3424749519231,363.6996130371094L436.21063790865384,401.22004101562504L439.94696382211544,437.9861008300781L441.81512677884615,359.8927966308594L443.6832897355769,312.541099609375L445.55145269230775,266.7033852539062L447.41961564903846,275.85410302734374L449.28777860576923,268.0544553222656L451.15594156249995,254.71264990234374L453.0241045192308,233.4474016113281L454.89226747596155,243.01939111328122L456.76043043269226,239.65446362304687L458.6285933894231,205.4057255859375L460.49675634615386,192.76757373046874L462.3649193028846,208.49517431640626L464.2330822596154,208.13106005859376L466.1012452163462,214.80559838867185L467.9694081730769,229.76962670898436L469.8375711298077,347.3261606445312L471.7057340865385,275.60264697265626L473.5738970432692,326.6411389160156L475.44206,419.92111865234375L477.3102229567308,376.48659521484376L479.1783859134615,320.59487255859375L481.04654887019234,338.492984375L482.9147118269231,319.137126953125L484.7828747836538,325.00372924804685L486.6510377403846,300.21073291015625L488.5192006971154,306.51287329101564L490.38736365384614,341.8887456054687L492.2555266105769,351.0321921386719L494.12368956730774,348.5218654785156L495.99185252403845,327.8123608398438L497.8600154807692,295.78549291992186L499.72817843750005,281.7786911621094L501.59634139423076,284.89566015625L503.46450435096153,283.9837177734375L505.33266730769236,280.54414501953124L507.2008302644231,963.0958800048828L518.4098080048077,394.04341894531245L520.2779709615385,347.3786240234375L522.1461339182692,357.0034450683594L524.014296875,387.1537807617188L525.8824598317308,388.3805954589844L527.7506227884616,365.59160815429686L529.6187857451923,330.5352102050781L531.4869487019231,339.0806662597656L533.3551116586538,319.42549145507815L535.2232746153846,316.40268041992186L537.0914375721154,303.90857275390624L538.9596005288461,316.21049877929687L540.827763485577,310.35144384765624L542.6959264423077,306.20720507812496L544.5640893990384,334.8684091796875L546.4322523557693,299.11213134765626L548.3004153125,190.66047875976562L550.1685782692307,318.7318703613281L552.0367412259616,313.1725930175781L553.9049041826923,322.0865812988281L555.773067139423,341.9081662597656L557.6412300961539,324.36671337890624L559.5093930528847,319.94036889648436L561.3775560096153,277.23987255859373L563.2457189663462,292.18586083984377L565.113881923077,310.56405859375L566.9820448798076,313.9085529785156L568.8502078365384,299.7536572265625L570.7183707932693,296.499455078125L572.58653375,305.0494211425781L574.4546967067307,314.6487468261719L576.3228596634616,294.6627766113281L578.1910226201923,294.2427014160156L580.059185576923,290.6629501953125L581.9273485336539,317.7346979980469L583.7955114903846,283.88928369140626L585.6636744471153,209.15501635742189L587.5318374038462,209.81863208007815L589.4000003605769,296.59536181640624L591.2681633173077,292.17941796875L593.1363262740385,367.4987900390625L595.0044892307692,343.58119580078124L596.8726521875,338.22947094726567L598.7408151442309,297.05464648437504L600.6089781009615,285.0997150878906L602.4771410576923,279.1192580566406L604.345304014423,273.5975334472656L606.2134669711538,278.7114243164063L608.0816299278846,256.7519106445313L609.9497928846154,273.05550390625L611.8179558413461,290.0416733398437L613.6861187980769,285.2268237304687L615.5542817548077,287.89638134765624L617.4224447115384,299.01963012695313L619.2906076682692,237.43112084960939L621.158770625,295.6871931152344L623.0269335817308,300.6493083496094L624.8950965384615,298.59486083984376L626.7632594951923,246.5332409667969L628.6314224519231,308.212962890625L630.4995854086538,265.2846650390625L632.3677483653846,274.64652490234374L634.2359113221154,270.46188012695313L636.1040742788462,298.10888427734375L637.9722372355769,299.29630541992185L639.8404001923077,311.4951455078125L641.7085631490385,302.71572119140626L643.5767261057692,293.1781550292969L645.4448890625,286.3075693359375L647.3130520192308,309.899154296875L649.1812149759616,297.8643312988281L651.0493779326923,291.3749794921875L652.9175408894231,291.7325588378906L654.7857038461539,310.9420710449219" style="fill: none;" fill="none"></path></g><g><path stroke="rgb(51, 187, 238)" stroke-width="2px" d="M62.5780465625,-89.33878344726558L64.44620951923078,29.08588134765627L66.31437247596153,-10.051431152343762L70.05069838942308,-20.14952709960936L71.91886134615385,0.563751220703125L73.78702430288462,61.01932763671876L75.65518725961539,21.407543701171875L77.52335021634616,40.186488037109356L79.39151317307692,27.437426757812492L81.2596761298077,17.165097167968764L83.12783908653846,67.00788427734375L84.99600204326923,50.6560615234375L86.864165,72.88792456054689L88.73232795673077,71.58213867187499L90.60049091346153,83.35068701171873L92.46865387019231,93.97976757812499L94.33681682692307,114.74136743164061L96.20497978365385,107.88863769531248L98.07314274038463,-66.26244409179685L99.94130569711538,95.70645703125001L101.80946865384615,98.21218164062498L103.67763161057694,163.48987890625L105.5457945673077,212.76688989257815L107.41395752403845,245.3030207519531L109.28212048076922,188.65996728515628L111.15028343750001,213.44771728515627L113.01844639423076,190.78188085937498L114.88660935096154,145.71850756835937L116.75477230769229,148.98688403320313L118.62293526442308,164.5608681640625L120.49109822115385,147.95464404296874L122.3592611778846,166.49060009765623L124.22742413461539,155.41659326171876L126.09558709134616,163.40934301757812L127.96375004807692,160.03337060546875L129.8319130048077,156.89182666015623L131.70007596153846,163.305796875L133.56823891826923,104.29802563476561L135.436401875,59.22020190429688L137.30456483173077,248.13779199218752L139.17272778846154,306.2662033691406L141.0408907451923,288.63556274414066L142.90905370192309,332.6814226074219L144.77721665865386,297.91780712890625L146.64537961538463,228.21440966796874L148.51354257211537,261.5998029785156L150.38170552884614,220.35567163085938L152.24986848557694,257.35137377929686L154.11803144230768,219.9900847167969L155.98619439903845,225.34144140625L157.85435735576922,223.73155200195313L159.7225203125,235.01292724609374L161.59068326923077,218.75636694335935L163.45884622596154,195.92614526367188L165.3270091826923,189.85548803710935L167.19517213942308,201.77305078125002L169.06333509615385,192.0266435546875L170.93149805288462,466.90612426757815L174.66782396634616,389.51978710937505L176.53598692307693,370.5211408691406L178.40414987980768,310.1092839355469L180.27231283653848,339.8109196777344L182.14047579326925,356.9326655273438L184.00863875,293.9912453613281L185.8768017067308,276.93365209960933L187.74496466346153,216.765427734375L189.6131276201923,227.38410766601564L191.4812905769231,238.4374973144531L193.34945353365384,238.61044238281247L195.21761649038461,256.5454626464844L197.0857794471154,248.86878173828129L198.95394240384616,249.16865136718752L200.82210536057693,220.02533642578126L202.69026831730767,235.95542724609376L204.55843127403847,209.66777685546876L206.42659423076924,202.65876147460938L208.29475718749998,402.4848686523438L210.16292014423078,132.3226740722656L212.03108310096155,97.60498706054688L213.8992460576923,203.98691333007812L215.7674090144231,258.1034409179687L217.63557197115387,196.0723984375L219.5037349278846,159.1587048339844L221.37189788461538,156.61192993164065L223.24006084134615,85.32036474609374L225.10822379807692,115.43038647460939L226.9763867548077,159.9513620605469L228.84454971153843,190.78758740234377L230.71271266826923,194.99349365234377L232.580875625,186.87584423828125L234.44903858173075,192.08131591796874L236.31720153846155,200.57403247070312L238.18536449519232,207.0123935546875L240.05352745192306,193.4504260253906L241.92169040865386,203.46347607421876L243.7898533653846,203.07395849609375L245.65801632211537,204.1134697265625L247.52617927884617,173.28764501953128L249.39434223557691,327.58787280273435L251.26250519230769,358.42511059570313L253.13066814903848,353.2650151367188L254.99883110576923,323.0548527832031L256.8669940625,336.37346386718747L258.73515701923077,291.01104931640623L260.60331997596154,219.6436423339844L262.4714829326923,225.03393237304687L264.3396458894231,227.71186572265623L266.20780884615385,225.1496279296875L268.0759718028846,261.598974609375L269.9441347596154,248.78152685546874L271.81229771634617,243.34806958007815L273.68046067307694,224.27551440429687L275.5486236298077,219.2719807128906L277.4167865865385,230.5174599609375L279.2849495432692,219.24068676757813L281.1531125,221.252611328125L283.0212754567308,-286.6821762695312L284.8894384134615,-201.18987890625002L286.75760137019233,125.581498046875L288.6257643269231,143.729041015625L290.4939272836538,199.07818188476563L292.36209024038465,211.65669116210935L294.2302531971154,186.44776147460936L296.09841615384613,207.3650947265625L297.9665791105769,219.42513696289063L299.8347420673077,225.83864697265625L301.70290502403844,224.67257934570313L303.5710679807692,241.249810546875L305.4392309375,250.6756389160156L307.30739389423076,251.28881616210938L309.1755568509615,224.485828125L311.0437198076923,230.19191088867188L312.91188276442307,245.52198632812502L314.78004572115384,217.7507268066406L316.6482086778846,199.45011962890626L318.5163716346154,214.62823535156252L320.38453459134615,208.64685791015629L322.2526975480769,97.65662207031252L324.1208605048077,-13.585530029296882L325.98902346153847,26.858396728515643L327.85718641826924,80.22828759765625L329.725349375,118.89462622070313L331.5935123317308,149.96334716796875L333.46167528846155,179.151578125L335.3298382451923,222.13500854492187L337.1980012019231,225.29578906249998L339.06616415865386,238.69843359375L340.9343271153846,241.31994580078123L342.8024900721154,262.1355737304687L344.6706530288462,277.96027758789063L346.5388159855769,259.367900390625L348.4069789423077,248.81502978515624L350.2751418990385,242.05406494140624L352.1433048557692,236.76391552734373L354.01146781250003,248.87301562499997L355.8796307692308,251.51956298828125L357.7477937259615,411.54170458984373L359.61595668269234,441.72802832031255L361.48411963942306,289.7725454101562L363.3522825961538,199.4144997558594L365.22044555288466,205.49021923828124L367.08860850961537,225.8189501953125L368.95677146634614,226.881103515625L370.8249344230769,222.68384912109377L372.6930973798077,198.7964443359375L374.56126033653845,220.12050683593748L376.4294232932692,258.1013239746094L378.29758625,262.49195654296875L380.1657492067307,265.22198510742186L382.03391216346154,274.5927729492187L383.9020751201923,296.7295576171875L385.770238076923,298.15886254882815L387.63840103365385,283.9790236816406L389.5065639903846,289.3834880371094L391.37472694711533,281.57224316406246L393.24288990384616,260.4295935058594L395.11105286057693,340.1469614257812L396.97921581730765,340.88430200195313L398.8473787740385,254.388849609375L400.71554173076925,299.2969497070313L402.58370468749996,247.7298662109375L404.4518676442308,158.65606884765623L406.32003060096156,180.3397355957031L408.1881935576923,183.38887036132812L410.05635651442304,162.58879736328126" style="fill: none;" fill="none"></path></g></g></g></g></g></g><g transform="translate(72, 377)" clip-path="url(#clip_1)"><clipPath id="clip_1"><rect width="740" height="23"></rect></clipPath><g><g><line x1="0" y1="0" x2="0" y2="5" style="visibility: inherit;" fill="rgb(0, 0, 0)" stroke="rgb(204, 204, 204)" stroke-width="1px"></line><line x1="56.97355769230769" y1="0" x2="56.97355769230769" y2="5" style="visibility: inherit;" fill="rgb(0, 0, 0)" stroke="rgb(204, 204, 204)" stroke-width="1px"></line><line x1="113.94711538461539" y1="0" x2="113.94711538461539" y2="5" style="visibility: inherit;" fill="rgb(0, 0, 0)" stroke="rgb(204, 204, 204)" stroke-width="1px"></line><line x1="170.9206730769231" y1="0" x2="170.9206730769231" y2="5" style="visibility: inherit;" fill="rgb(0, 0, 0)" stroke="rgb(204, 204, 204)" stroke-width="1px"></line><line x1="227.89423076923077" y1="0" x2="227.89423076923077" y2="5" style="visibility: inherit;" fill="rgb(0, 0, 0)" stroke="rgb(204, 204, 204)" stroke-width="1px"></line><line x1="284.86778846153845" y1="0" x2="284.86778846153845" y2="5" style="visibility: inherit;" fill="rgb(0, 0, 0)" stroke="rgb(204, 204, 204)" stroke-width="1px"></line><line x1="341.8413461538462" y1="0" x2="341.8413461538462" y2="5" style="visibility: inherit;" fill="rgb(0, 0, 0)" stroke="rgb(204, 204, 204)" stroke-width="1px"></line><line x1="398.8149038461538" y1="0" x2="398.8149038461538" y2="5" style="visibility: inherit;" fill="rgb(0, 0, 0)" stroke="rgb(204, 204, 204)" stroke-width="1px"></line><line x1="455.78846153846155" y1="0" x2="455.78846153846155" y2="5" style="visibility: inherit;" fill="rgb(0, 0, 0)" stroke="rgb(204, 204, 204)" stroke-width="1px"></line><line x1="512.7620192307692" y1="0" x2="512.7620192307692" y2="5" style="visibility: inherit;" fill="rgb(0, 0, 0)" stroke="rgb(204, 204, 204)" stroke-width="1px"></line><line x1="569.7355769230769" y1="0" x2="569.7355769230769" y2="5" style="visibility: inherit;" fill="rgb(0, 0, 0)" stroke="rgb(204, 204, 204)" stroke-width="1px"></line><line x1="626.7091346153846" y1="0" x2="626.7091346153846" y2="5" style="visibility: inherit;" fill="rgb(0, 0, 0)" stroke="rgb(204, 204, 204)" stroke-width="1px"></line><line x1="683.6826923076924" y1="0" x2="683.6826923076924" y2="5" style="visibility: inherit;" fill="rgb(0, 0, 0)" stroke="rgb(204, 204, 204)" stroke-width="1px"></line><line x1="740.65625" y1="0" x2="740.65625" y2="5" style="visibility: inherit;" fill="rgb(0, 0, 0)" stroke="rgb(204, 204, 204)" stroke-width="1px"></line></g><g transform="translate(0, 8)"><text x="0" y="0" dx="0em" dy="0.95em" style="text-anchor: middle; visibility: hidden; font-family: Roboto, sans-serif; font-size: 12px; font-weight: 200;" fill="rgb(255, 255, 255)" stroke="none" stroke-width="1px">-100k</text><text x="56.97355769230769" y="0" dx="0em" dy="0.95em" style="text-anchor: middle; visibility: inherit; font-family: Roboto, sans-serif; font-size: 12px; font-weight: 200;" fill="rgb(255, 255, 255)" stroke="none" stroke-width="1px">0</text><text x="113.94711538461539" y="0" dx="0em" dy="0.95em" style="text-anchor: middle; visibility: inherit; font-family: Roboto, sans-serif; font-size: 12px; font-weight: 200;" fill="rgb(255, 255, 255)" stroke="none" stroke-width="1px">100k</text><text x="170.9206730769231" y="0" dx="0em" dy="0.95em" style="text-anchor: middle; visibility: inherit; font-family: Roboto, sans-serif; font-size: 12px; font-weight: 200;" fill="rgb(255, 255, 255)" stroke="none" stroke-width="1px">200k</text><text x="227.89423076923077" y="0" dx="0em" dy="0.95em" style="text-anchor: middle; visibility: inherit; font-family: Roboto, sans-serif; font-size: 12px; font-weight: 200;" fill="rgb(255, 255, 255)" stroke="none" stroke-width="1px">300k</text><text x="284.86778846153845" y="0" dx="0em" dy="0.95em" style="text-anchor: middle; visibility: inherit; font-family: Roboto, sans-serif; font-size: 12px; font-weight: 200;" fill="rgb(255, 255, 255)" stroke="none" stroke-width="1px">400k</text><text x="341.8413461538462" y="0" dx="0em" dy="0.95em" style="text-anchor: middle; visibility: inherit; font-family: Roboto, sans-serif; font-size: 12px; font-weight: 200;" fill="rgb(255, 255, 255)" stroke="none" stroke-width="1px">500k</text><text x="398.8149038461538" y="0" dx="0em" dy="0.95em" style="text-anchor: middle; visibility: inherit; font-family: Roboto, sans-serif; font-size: 12px; font-weight: 200;" fill="rgb(255, 255, 255)" stroke="none" stroke-width="1px">600k</text><text x="455.78846153846155" y="0" dx="0em" dy="0.95em" style="text-anchor: middle; visibility: inherit; font-family: Roboto, sans-serif; font-size: 12px; font-weight: 200;" fill="rgb(255, 255, 255)" stroke="none" stroke-width="1px">700k</text><text x="512.7620192307692" y="0" dx="0em" dy="0.95em" style="text-anchor: middle; visibility: inherit; font-family: Roboto, sans-serif; font-size: 12px; font-weight: 200;" fill="rgb(255, 255, 255)" stroke="none" stroke-width="1px">800k</text><text x="569.7355769230769" y="0" dx="0em" dy="0.95em" style="text-anchor: middle; visibility: inherit; font-family: Roboto, sans-serif; font-size: 12px; font-weight: 200;" fill="rgb(255, 255, 255)" stroke="none" stroke-width="1px">900k</text><text x="626.7091346153846" y="0" dx="0em" dy="0.95em" style="text-anchor: middle; visibility: inherit; font-family: Roboto, sans-serif; font-size: 12px; font-weight: 200;" fill="rgb(255, 255, 255)" stroke="none" stroke-width="1px">1M</text><text x="683.6826923076924" y="0" dx="0em" dy="0.95em" style="text-anchor: middle; visibility: inherit; font-family: Roboto, sans-serif; font-size: 12px; font-weight: 200;" fill="rgb(255, 255, 255)" stroke="none" stroke-width="1px">1.1M</text><text x="740.65625" y="0" dx="0em" dy="0.95em" style="text-anchor: middle; visibility: hidden; font-family: Roboto, sans-serif; font-size: 12px; font-weight: 200;" fill="rgb(255, 255, 255)" stroke="none" stroke-width="1px">1.2M</text></g><line x1="0" y1="0" x2="740.65625" y2="0" fill="rgb(0, 0, 0)" stroke="rgb(204, 204, 204)" stroke-width="1px"></line></g></g></g></g></svg>